<svg fill="#8a8a8a" xmlns="http://www.w3.org/2000/svg" viewBox="0 0 384 512"><!--!Font Awesome Free 6.5.1 by @fontawesome - https://fontawesome.com License - https://fontawesome.com/license/free Copyright 2024 Fonticons, Inc.--><path d="M384 121.9V128H256V0h6.1c6.4 0 12.5 2.5 17 7l97.9 97.9A24 24 0 0 1 384 121.9zM224 136V0H24C10.7 0 0 10.7 0 24v464c0 13.3 10.7 24 24 24h336c13.3 0 24-10.7 24-24V160H248c-13.2 0-24-10.8-24-24zm96 144v112c0 21.4-25.9 32-41 17L224 353.9V392c0 13.3-10.7 24-24 24H88c-13.3 0-24-10.7-24-24V280c0-13.3 10.7-24 24-24h112c13.3 0 24 10.7 24 24v38.1l55-55c15-15 41-4.5 41 17z"/></svg>