<svg fill="#8a8a8a" xmlns="http://www.w3.org/2000/svg" viewBox="0 0 384 512"><!--!Font Awesome Free 6.5.1 by @fontawesome - https://fontawesome.com License - https://fontawesome.com/license/free Copyright 2024 Fonticons, Inc.--><path d="M384 121.9V128H256V0h6.1a24 24 0 0 1 17 7l97.9 97.9a24 24 0 0 1 7 17zM248 160c-13.2 0-24-10.8-24-24V0H24C10.7 0 0 10.7 0 24v464c0 13.3 10.7 24 24 24h336c13.3 0 24-10.7 24-24V160H248zm-135.5 16c26.5 0 48 21.5 48 48s-21.5 48-48 48-48-21.5-48-48 21.5-48 48-48zm208 240h-256l.5-48.5L104.5 328c4.7-4.7 11.8-4.2 16.5 .5L160.5 368 264.1 264.5c4.7-4.7 12.3-4.7 17 0L320.5 304v112z"/></svg>