<svg fill="#8a8a8a" xmlns="http://www.w3.org/2000/svg" viewBox="0 0 576 512"><!--!Font Awesome Free 6.5.1 by @fontawesome - https://fontawesome.com License - https://fontawesome.com/license/free Copyright 2024 Fonticons, Inc.--><path d="M576 304v96c0 26.5-21.5 48-48 48H48c-26.5 0-48-21.5-48-48v-96c0-26.5 21.5-48 48-48h480c26.5 0 48 21.5 48 48zm-48-80a79.6 79.6 0 0 1 30.8 6.2L462.3 85.4A48 48 0 0 0 422.3 64H153.7a48 48 0 0 0 -39.9 21.4L17.2 230.2A79.6 79.6 0 0 1 48 224h480zm-48 96c-17.7 0-32 14.3-32 32s14.3 32 32 32 32-14.3 32-32-14.3-32-32-32zm-96 0c-17.7 0-32 14.3-32 32s14.3 32 32 32 32-14.3 32-32-14.3-32-32-32z"/></svg>